<?xml version="1.0" encoding="utf-8"?>
<!-- Generator: Adobe Illustrator 28.1.0, SVG Export Plug-In . SVG Version: 6.00 Build 0)  -->
<svg version="1.1" id="Layer_1" xmlns="http://www.w3.org/2000/svg" xmlns:xlink="http://www.w3.org/1999/xlink" x="0px" y="0px"
	 viewBox="0 0 250 40" style="enable-background:new 0 0 250 40;" xml:space="preserve">
<style type="text/css">
	.st0{fill:#FFFFFF;}
	.st1{fill:#BCCF0F;}
</style>
<g>
	<path class="st0" d="M19.8,15.5c1,0,2.4,0.2,3.2,0.3l0.1-1.2c-0.8-0.2-2.1-0.4-3.4-0.4c-3.7,0-4.5,2.2-4.5,6.4
		c0,4.1,0.8,6.4,4.5,6.4c1.2,0,2.6-0.2,3.4-0.4l-0.1-1.2c-0.9,0.2-2.2,0.3-3.2,0.3c-2.8,0-3.3-1.6-3.3-5.1
		C16.6,17.2,17.1,15.5,19.8,15.5z"/>
	<path class="st0" d="M27.3,14.5l-3.4,12.4h1.4l0.9-3.2h5.3l0.9,3.2h1.4l-3.4-12.4H27.3z M26.4,22.5l1.9-6.8h0.9l1.9,6.8H26.4z"/>
	<polygon class="st0" points="41.2,25 37.7,14.5 35.2,14.5 35.2,26.9 36.6,26.9 36.6,16 36.8,16 40.4,26.5 42,26.5 45.6,16 45.9,16 
		45.9,26.9 47.2,26.9 47.2,14.5 44.7,14.5 	"/>
	<path class="st0" d="M54.4,14.5h-4.5v12.4h1.4v-4.2h3.2c2.7,0,4-1.5,4-4.3C58.4,15.8,57.1,14.5,54.4,14.5z M54.4,21.5h-3.2v-5.8
		h3.2c1.8,0,2.6,0.9,2.6,2.8C56.9,20.4,56.2,21.5,54.4,21.5z"/>
	<path class="st0" d="M67.3,23.2c0,2-1.1,2.7-3,2.7c-1.8,0-2.9-0.8-2.9-2.7v-8.7H60v8.7c0,2.9,1.6,3.9,4.3,3.9
		c2.8,0,4.4-1.1,4.4-3.9v-8.7h-1.4L67.3,23.2L67.3,23.2z"/>
	<path class="st0" d="M74.9,19.9c-2.2-0.5-3-0.8-3-2.4c0-1.4,0.9-2,2.7-2c1,0,3.5,0.3,3.5,0.3l0.1-1.2c0,0-2.3-0.3-3.7-0.3
		c-2.4,0-4,0.9-4,3.3c0,2.4,1.3,3,3.9,3.5c2,0.4,2.8,0.8,2.8,2.2c0,1.7-0.9,2.5-2.6,2.5c-1.3,0-3.7-0.3-3.7-0.3l-0.2,1.1
		c0,0,2.5,0.4,3.9,0.4c2.5,0,4-1.1,4-3.8C78.5,21.1,77.4,20.5,74.9,19.9z"/>
	<polygon class="st0" points="84.5,26.7 86.9,26.7 86.9,22.4 91.3,22.4 91.3,20.2 86.9,20.2 86.9,16.6 92.3,16.6 92.3,14.4 
		84.5,14.4 	"/>
	<path class="st0" d="M98.1,14.2c-3.8,0-5.1,2.3-5.1,6.4s1.2,6.2,5.1,6.2s5.1-2.1,5.1-6.2S101.9,14.2,98.1,14.2z M98.1,24.7
		c-2,0-2.5-1.3-2.5-4.1s0.5-4.3,2.5-4.3s2.5,1.4,2.5,4.3C100.6,23.5,100.1,24.7,98.1,24.7z"/>
	<path class="st0" d="M111.6,22.6c0,1.4-0.7,2.1-2.2,2.1c-1.4,0-2.2-0.7-2.2-2.1v-8.1h-2.5v8.1c0,3.1,1.6,4.3,4.7,4.3
		c3.1,0,4.7-1.3,4.7-4.3v-8.1h-2.5V22.6z"/>
	<polygon class="st0" points="123.4,24.5 123.2,24.5 120.3,14.4 116.1,14.4 116.1,26.7 118.6,26.7 118.6,16.6 118.8,16.6 
		121.8,26.7 125.9,26.7 125.9,14.4 123.4,14.4 	"/>
	<path class="st0" d="M132.3,14.4h-4.1v12.2h4.1c4.4,0,5.2-2.2,5.2-6.3C137.4,16.2,136.5,14.4,132.3,14.4z M132.3,24.5h-1.6v-7.9
		h1.6c2.4,0,2.6,1,2.6,3.7C134.9,23,134.6,24.5,132.3,24.5z"/>
	<polygon class="st0" points="139.1,26.7 147,26.7 147,24.5 141.6,24.5 141.6,21.6 146,21.6 146,19.5 141.6,19.5 141.6,16.6 
		147,16.6 147,14.4 139.1,14.4 	"/>
	<path class="st0" d="M157.7,18.5c0-2.8-1.5-4-4.3-4h-4.8v12.2h2.5v-4.1h2.4l1.4,4.1h2.7l-1.7-4.7C157,21.3,157.7,20.1,157.7,18.5z
		 M153.4,20.4h-2.3v-3.9h2.3c1.2,0,1.8,0.8,1.8,2C155.2,19.6,154.7,20.4,153.4,20.4z"/>
	<path class="st0" d="M163.7,19.4c-2-0.7-2.5-0.9-2.5-1.7c0-0.8,0.6-1.3,2-1.3c1,0,3.6,0.3,3.6,0.3l0.2-2c0,0-2.4-0.5-4-0.5
		c-2.5,0-4.2,1.1-4.2,3.6c0,2,1,2.9,3.8,3.7c1.8,0.5,2.2,0.9,2.2,1.6c0,0.9-0.6,1.6-1.9,1.6c-1.3,0-3.7-0.3-3.7-0.3l-0.3,1.9
		c0,0,2.4,0.6,4.1,0.6c2.4,0,4.2-1.2,4.2-3.9C167.1,20.9,166.3,20.2,163.7,19.4z"/>
</g>
<polygon class="st1" points="84.1,39.3 81,35.5 6.4,35.5 6.4,5.8 30.9,5.8 27.7,2 6.4,2 6.4,2 2.6,2 2.6,39.3 "/>
<path id="white" class="st1" d="M2.5,1.9"/>
</svg>
