<?xml version="1.0" encoding="utf-8"?>
<!-- Generator: Adobe Illustrator 28.1.0, SVG Export Plug-In . SVG Version: 6.00 Build 0)  -->
<svg version="1.1" id="Layer_1" xmlns="http://www.w3.org/2000/svg" xmlns:xlink="http://www.w3.org/1999/xlink" x="0px" y="0px"
	 viewBox="0 0 329.3 117.2" style="enable-background:new 0 0 329.3 117.2;" xml:space="preserve">
<style type="text/css">
	.st0{fill:#BCCF0F;}
</style>
<g>
	<path d="M41.5,31.9c1.8,0,4.5,0.3,6,0.6l0.1-2.1c-1.5-0.3-3.9-0.8-6.3-0.8c-6.9,0-8.4,4.1-8.4,11.8c0,7.5,1.5,11.7,8.4,11.7
		c2.2,0,4.7-0.3,6.3-0.7l-0.1-2.2c-1.6,0.3-4.1,0.6-5.9,0.6c-5.2,0-6-3-6-9.5C35.5,34.9,36.4,31.9,41.5,31.9z"/>
	<path d="M55.2,29.9l-6.3,22.9h2.5l1.7-5.9h9.8l1.7,5.9H67l-6.3-22.9H55.2z M53.6,44.7l3.5-12.5h1.7l3.5,12.5H53.6z"/>
	<polygon points="80.9,49.3 74.4,29.9 69.8,29.9 69.8,52.8 72.3,52.8 72.3,32.7 72.7,32.7 79.4,52 82.3,52 88.9,32.7 89.4,32.7 
		89.4,52.8 92,52.8 92,29.9 87.3,29.9 	"/>
	<path d="M105.1,29.9h-8.4v22.9h2.6v-7.7h5.8c5,0,7.3-2.8,7.3-7.8C112.4,32.4,110.1,29.9,105.1,29.9z M105.1,42.9h-5.8V32.2h5.8
		c3.4,0,4.8,1.6,4.8,5.1C109.8,40.8,108.4,42.9,105.1,42.9z"/>
	<path d="M128.9,45.9c0,3.6-2,5-5.6,5c-3.4,0-5.3-1.4-5.3-5v-16h-2.6v16c0,5.3,2.9,7.3,7.9,7.3c5.2,0,8.1-2,8.1-7.3v-16h-2.5
		L128.9,45.9L128.9,45.9z"/>
	<path d="M143,39.9c-4-0.9-5.6-1.4-5.6-4.4c0-2.6,1.7-3.7,5-3.7c1.9,0,6.5,0.6,6.5,0.6l0.2-2.1c0,0-4.2-0.6-6.9-0.6
		c-4.5,0-7.4,1.7-7.4,6.2c0,4.4,2.4,5.5,7.1,6.5c3.7,0.8,5.1,1.5,5.1,4.1c0,3.2-1.7,4.6-4.9,4.6c-2.3,0-6.8-0.6-6.8-0.6l-0.3,2.1
		c0,0,4.5,0.8,7.3,0.8c4.5,0,7.3-2,7.3-7C149.5,42.1,147.5,41,143,39.9z"/>
	<polygon points="160.5,52.4 165.1,52.4 165.1,44.4 173.1,44.4 173.1,40.4 165.1,40.4 165.1,33.8 174.9,33.8 174.9,29.9 160.5,29.9 
			"/>
	<path d="M185.6,29.5c-7.1,0-9.3,4.2-9.3,11.8s2.3,11.5,9.3,11.5c7.1,0,9.3-3.9,9.3-11.5S192.7,29.5,185.6,29.5z M185.6,48.8
		c-3.7,0-4.6-2.3-4.6-7.5s0.9-7.8,4.6-7.8s4.6,2.6,4.6,7.8C190.2,46.5,189.3,48.8,185.6,48.8z"/>
	<path d="M210.4,44.8c0,2.7-1.3,3.9-4,3.9s-4-1.3-4-3.9v-15h-4.6v14.9c0,5.6,3,8,8.6,8c5.6,0,8.6-2.4,8.6-8V29.9h-4.6V44.8z"/>
	<polygon points="232.3,48.4 231.9,48.4 226.5,29.9 218.8,29.9 218.8,52.4 223.4,52.4 223.4,33.8 223.7,33.8 229.3,52.4 236.8,52.4 
		236.8,29.9 232.3,29.9 	"/>
	<path d="M248.5,29.9h-7.6v22.5h7.6c8.1,0,9.6-4,9.6-11.7C258,33.2,256.3,29.9,248.5,29.9z M248.5,48.4h-3V33.8h3
		c4.4,0,4.9,1.9,4.9,6.8C253.3,45.7,252.9,48.4,248.5,48.4z"/>
	<polygon points="261.2,52.4 275.7,52.4 275.7,48.4 265.7,48.4 265.7,43 273.7,43 273.7,39.1 265.7,39.1 265.7,33.8 275.7,33.8 
		275.7,29.9 261.2,29.9 	"/>
	<path d="M295.3,37.3c0-5.1-2.8-7.4-7.9-7.4h-8.8v22.5h4.6v-7.5h4.4l2.6,7.5h5l-3.2-8.6C294.1,42.5,295.3,40.4,295.3,37.3z
		 M287.5,40.9h-4.2v-7.1h4.2c2.2,0,3.2,1.5,3.2,3.6C290.7,39.3,289.8,40.9,287.5,40.9z"/>
	<path d="M306.4,38.9c-3.8-1.2-4.6-1.7-4.6-3.1c0-1.5,1.2-2.4,3.6-2.4c1.9,0,6.6,0.6,6.6,0.6l0.3-3.6c0,0-4.4-0.9-7.4-0.9
		c-4.6,0-7.7,2-7.7,6.7c0,3.6,1.9,5.3,7,6.8c3.2,0.9,4.1,1.6,4.1,3c0,1.7-1,2.9-3.5,2.9c-2.3,0-6.8-0.6-6.8-0.6l-0.5,3.5
		c0,0,4.4,1,7.5,1c4.4,0,7.8-2.3,7.8-7.2C312.7,41.8,311.2,40.5,306.4,38.9z"/>
</g>
<polygon class="st0" points="159.9,75.7 154,68.7 16.7,68.7 16.7,14 61.8,14 56,6.9 16.7,6.9 16.7,6.9 9.7,6.9 9.7,75.7 "/>
<path id="black" d="M44.6,109.4H34.5V91h2.1v16.6h8.1C44.6,107.6,44.6,109.4,44.6,109.4z M46.9,109.4V96.1h2v13.3H46.9z M46.9,93.1
	v-2.3h2v2.3H46.9z M54.7,109.4h-2V96.1h2V97c1.4-0.8,2.8-1.2,4.1-1.2c1.8,0,3,0.5,3.6,1.4s0.9,2.7,0.9,5.1v7h-2v-7
	c0-1.9-0.2-3.1-0.5-3.8c-0.4-0.7-1.1-1-2.3-1c-0.6,0-1.2,0.1-1.8,0.3s-1.1,0.3-1.5,0.5l-0.5,0.2L54.7,109.4L54.7,109.4z M72.2,115.7
	c-2.1,0-3.6-0.3-4.5-0.9c-0.8-0.6-1.3-1.6-1.3-3.2c0-0.7,0.2-1.3,0.5-1.8c0.3-0.5,0.9-1,1.6-1.5c-0.5-0.3-0.7-1-0.7-1.8
	c0-0.1,0.1-0.4,0.2-0.7c0.2-0.4,0.3-0.7,0.4-0.9l0.2-0.4c-1.4-0.6-2.1-2-2.1-4c0-3,1.7-4.6,5-4.6c0.4,0,0.8,0,1.3,0.1
	s0.8,0.1,1.1,0.2l0.4,0.1l4-0.1v1.7l-2.5-0.1c0.6,0.6,0.9,1.5,0.9,2.7c0,1.7-0.4,2.8-1.2,3.5s-2.1,1-3.9,1c-0.5,0-0.9,0-1.3-0.1
	c-0.3,0.8-0.5,1.3-0.5,1.5c0,0.6,0.2,0.9,0.5,1c0.3,0.1,1.2,0.2,2.7,0.2c1.9,0,3.3,0.3,4,0.8s1.1,1.6,1.1,3.1
	C78.1,114.3,76.2,115.7,72.2,115.7L72.2,115.7z M72.8,109.3l-2.9-0.1c-0.6,0.4-1,0.8-1.2,1.1c-0.2,0.3-0.3,0.7-0.3,1.2
	c0,0.9,0.3,1.6,0.8,2c0.5,0.4,1.5,0.5,3,0.5c1.4,0,2.3-0.2,2.9-0.6c0.6-0.4,0.9-1,0.9-1.9c0-1-0.2-1.6-0.7-1.8
	C75,109.4,74.1,109.3,72.8,109.3z M71.6,103.3c1.1,0,1.9-0.2,2.4-0.7s0.7-1.2,0.7-2.2c0-1.1-0.2-1.8-0.7-2.3
	c-0.5-0.4-1.3-0.7-2.4-0.7c-1,0-1.8,0.2-2.3,0.7c-0.5,0.5-0.7,1.2-0.7,2.3s0.2,1.8,0.7,2.2C69.8,103.1,70.6,103.3,71.6,103.3z
	 M85.9,95.8c2.1,0,3.6,0.5,4.4,1.6c0.9,1.1,1.3,2.8,1.3,5.2c0,2.5-0.4,4.3-1.2,5.4s-2.3,1.7-4.5,1.7c-2.2,0-3.7-0.6-4.5-1.7
	s-1.2-2.9-1.2-5.4c0-2.3,0.4-4.1,1.3-5.2C82.4,96.4,83.8,95.8,85.9,95.8L85.9,95.8z M85.9,108c1.5,0,2.5-0.4,3-1.2
	c0.5-0.8,0.7-2.2,0.7-4.2c0-1.9-0.3-3.2-0.8-3.9c-0.5-0.7-1.5-1.1-2.9-1.1c-1.4,0-2.3,0.4-2.9,1.1c-0.5,0.7-0.8,2.1-0.8,3.9
	c0,2,0.2,3.4,0.7,4.2C83.4,107.6,84.4,108,85.9,108z"/>
</svg>
